# AST/ASF file generated using VICON BodyLanguage
# -----------------------------------------------
:version 1.10
:name VICON
:units
  mass 1.0
  length 0.45
  angle deg
:documentation
   .ast/.asf automatically generated from VICON data using
   VICON BodyBuilder and BodyLanguage model FoxedUp or BRILLIANT.MOD
:root
   order TX TY TZ RX RY RZ
   axis XYZ
   position 0 0 0  
   orientation 0 0 0 
:bonedata
  begin
     id 1 
     name lhipjoint
     direction 0.561145 -0.797705 0.220866 
     length 2.46425 
     axis 0 0 0  XYZ
  end
  begin
     id 2 
     name lfemur
     direction 0.34202 -0.939693 0  
     length 7.95556  
     axis 0 0 20  XYZ
    dof rx ry rz
    limits (-160.0 20.0)
           (-70.0 70.0)
           (-60.0 70.0)
  end
  begin
     id 3 
     name ltibia
     direction 0.34202 -0.939693 0   
     length 7.9832   
     axis 0 0 20   XYZ
    dof rx
    limits (-10.0 170.0)
  end
  begin
     id 4 
     name lfoot
     direction 0.0723927 -0.198897 0.977343   
     length 2.23085   
     axis -90 7.62852e-016 20   XYZ
    dof rx rz
    limits (-45.0 90.0)
           (-70.0 20.0)
  end
  begin
     id 5 
     name ltoes
     direction 1.53826e-011 -4.21988e-011 1   
     length 1.12127   
     axis -90 7.62852e-016 20   XYZ
    dof rx
    limits (-90.0 20.0)
  end
  begin
     id 6 
     name rhipjoint
     direction -0.610499 -0.763299 0.21134   
     length 2.57533  
     axis 0 0 0  XYZ 
  end
  begin
     id 7 
     name rfemur
     direction -0.34202 -0.939693 0   
     length 8.65257   
     axis 0 0 -20   XYZ
    dof rx ry rz
    limits (-160.0 20.0)
           (-70.0 70.0)
           (-70.0 60.0)
  end
  begin
     id 8 
     name rtibia
     direction -0.342021 -0.939692 0   
     length 7.37807   
     axis 0 0 -20   XYZ
    dof rx
    limits (-10.0 170.0)
 end
 begin
     id 9 
     name rfoot
     direction -0.0239304 -0.0543852 0.998233   
     length 1.87018  
     axis -90 -7.62852e-016 -20   XYZ
    dof rx rz
    limits (-45.0 90.0)
           (-20.0 70.0)
  end
  begin
     id 10 
     name rtoes
     direction -1.53584e-011 -4.2242e-011 1   
     length 0.951568   
     axis -90 -7.62852e-016 -20   XYZ
    dof rx
    limits (-90.0 20.0)
  end
  begin
     id 11 
     name lowerback
     direction 0.00322089 0.999033 0.0438587   
     length 2.07568   
     axis 0 0 0   XYZ
    dof rx ry rz
    limits (-20.0 45.0)
           (-30.0 30.0)
           (-30.0 30.0)
  end
  begin
     id 12 
     name upperback
     direction -0.00321932 0.999732 -0.0229403   
     length 2.06253   
     axis 0 0 0   XYZ
    dof rx ry rz
    limits (-20.0 45.0)
           (-30.0 30.0)
           (-30.0 30.0)
  end
  begin
     id 13 
     name thorax
     direction -0.00537537 0.998955 -0.0453918   
     length 2.06975   
     axis 0 0 0   XYZ
    dof rx ry rz
    limits (-20.0 45.0)
           (-30.0 30.0)
           (-30.0 30.0)
  end
  begin
     id 14 
     name lowerneck
     direction -0.00013604 0.994111 0.108363   
     length 1.50836   
     axis 0 0 0   XYZ
    dof rx ry rz
    limits (-20.0 45.0)
           (-30.0 30.0)
           (-30.0 30.0)
  end
  begin
     id 15 
     name upperneck
     direction 0.0397262 0.983859 -0.174482   
     length 1.53037   
     axis 0 0 0   XYZ
    dof rx ry rz
    limits (-20.0 45.0)
           (-30.0 30.0)
           (-30.0 30.0)
  end
  begin
     id 16
     name head
     direction 0.0109991 0.997082 -0.0755378  
     length 1.56928  
     axis 0 0 0   XYZ
    dof rx ry rz
    limits (-20.0 45.0)
           (-30.0 30.0)
           (-30.0 30.0)
  end
  begin
     id 17 
     name lclavicle
     direction 0.964749 0.254 -0.068874  
     length 3.26503  
     axis 0 0 0   XYZ
    dof ry rz
    limits (-20.0 10.0)
           (0.0 20.0)
  end
  begin
     id 18 
     name lhumerus
     direction 1 -4.48941e-011 -2.05079e-027   
     length 5.68236   
     axis 180 -30 -90   XYZ
    dof rx ry rz
    limits (-60.0 90.0)
           (-90.0 90.0)
           (-90.0 90.0)
  end
  begin
     id 19
     name lradius
     direction 1 -4.48956e-011 6.2882e-027   
     length 3.17112   
     axis 180 -30 -90   XYZ
    dof rx
    limits (-10.0 170.0)
  end
  begin
     id 20
     name lwrist
     direction 1 -4.49014e-011 1.73219e-026   
     length 1.58556   
     axis -1.04724e-014 90 90   XYZ
    dof ry
    limits (-180.0 0.0)
 end
  begin
     id 21 
     name lhand
     direction 1 -4.49312e-011 3.46438e-026   
     length 0.632691   
     axis -2.21057e-014 90 90   XYZ
    dof rx rz
    limits (-90.0 90.0)
           (-45.0 45.0)
  end
  begin
     id 22 
     name lfingers
     direction 1 -4.48894e-011 6.92876e-026   
     length 0.510091   
     axis -4.42114e-014 90 90   XYZ
    dof rx
    limits (0.0 90.0)
  end
  begin
     id 23
     name lthumb
     direction 0.707107 -6.34705e-011 0.707107   
     length 0.732392   
     axis -90 45 2.85299e-015   XYZ
    dof rx rz
    limits (-45.0 45.0)
           (-45.0 45.0)
  end
  begin
     id 24 
     name rclavicle
     direction -0.954374 0.280496 -0.102435   
     length 3.25419  
     axis 0 0 0   XYZ 
    dof ry rz
    limits (-10.0 20.0)
           (-20.0 0.0)
  end
  begin
     id 25 
     name rhumerus
     direction -1 -4.48994e-011 -1.07204e-017  
     length 5.8712   
     axis 180 30 90   XYZ
    dof rx ry rz
    limits (-90.0 60.0)
           (-90.0 90.0)
           (-90.0 90.0)
  end
  begin
     id 26 
     name rradius
     direction -1 -4.48972e-011 5.89292e-027   
     length 3.37589   
     axis 180 30 90   XYZ
    dof rx
    limits (-10.0 170.0)
  end
  begin
     id 27 
     name rwrist
     direction -1 -4.48942e-011 1.73219e-026   
     length 1.68794   
     axis -1.04724e-014 -90 -90   XYZ
    dof ry
    limits (-180.0 0.0)
  end
  begin
     id 28
     name rhand
     direction -1 -4.48514e-011 3.46438e-026   
     length 0.603257   
     axis -2.21057e-014 -90 -90   XYZ
    dof rx rz
    limits (-90.0 90.0)
           (-45.0 45.0)
  end
  begin
     id 29
     name rfingers
     direction -1 -4.50028e-011 6.92876e-026   
     length 0.486362   
     axis -4.42114e-014 -90 -90   XYZ
    dof rx
    limits (0.0 90.0)
  end
  begin
     id 30
     name rthumb
     direction -0.707107 -6.34926e-011 0.707107   
     length 0.698321   
     axis -90 -45 -2.85299e-015   XYZ
    dof rx rz
    limits (-45.0 45.0)
           (-45.0 45.0)
  end
:hierarchy
  begin
    root lhipjoint rhipjoint lowerback
    lhipjoint lfemur
    lfemur ltibia
    ltibia lfoot
    lfoot ltoes
    rhipjoint rfemur
    rfemur rtibia
    rtibia rfoot
    rfoot rtoes
    lowerback upperback
    upperback thorax
    thorax lowerneck lclavicle rclavicle
    lowerneck upperneck
    upperneck head
    lclavicle lhumerus
    lhumerus lradius
    lradius lwrist
    lwrist lhand lthumb
    lhand lfingers
    rclavicle rhumerus
    rhumerus rradius
    rradius rwrist
    rwrist rhand rthumb
    rhand rfingers
  end

#!OML:ASF I:\Segmentation\Patient Classification 1\Patient 1\Session 1\Patient1.ASF
:FULLY-SPECIFIED
:DEGREES
4645
root 28.5791 18.1719 7.41482 -174.309 42.3357 179.054
lowerback -7.38207 -1.10968 -3.14234
upperback 2.94195 -1.21635 0.999519
thorax 7.33286 -0.765493 2.65375
lowerneck -17.3357 5.38417 3.67437
upperneck 17.0532 7.47093 -4.42371
head 8.47336 3.36129 -1.14824
rclavicle -3.81915e-014 3.37934e-014
rhumerus -36.8855 -14.1953 -72.6085
rradius 34.7176
rwrist 14.1173
rhand -17.3907 26.944
rfingers 7.12502
rthumb 8.85838 -2.85008
lclavicle -3.81915e-014 3.37934e-014
lhumerus -18.7569 -10.6413 89.7654
lradius 30.9504
lwrist 10.0488
lhand -12.1053 34.1854
lfingers 7.12502
lthumb 13.9556 63.697
rfemur -32.2135 19.9134 8.48526
rtibia 14.9932
rfoot 11.2945 -4.32821
rtoes 34.9259
lfemur 2.4694 -1.50173 -27.3784
ltibia 18.2083
lfoot -18.2192 -3.31135
ltoes -0.0604358
4646
root 28.6691 18.1721 7.34357 -174.228 41.7254 179.161
lowerback -7.40311 -1.10862 -3.01113
upperback 2.89442 -1.23341 1.06918
thorax 7.29361 -0.768421 2.65087
lowerneck -17.309 5.31276 3.57924
upperneck 17.0216 7.38695 -4.37678
head 8.44867 3.32163 -1.12916
rclavicle -5.04416e-014 7.95139e-016
rhumerus -36.9772 -14.3527 -72.4068
rradius 34.4788
rwrist 14.2641
rhand -17.427 26.9183
rfingers 7.12502
rthumb 8.82327 -2.87723
lclavicle -5.04416e-014 7.95139e-016
lhumerus -19.1037 -10.0113 89.7584
lradius 30.3247
lwrist 9.58459
lhand -12.1595 34.2381
lfingers 7.12502
lthumb 13.9033 63.7533
rfemur -32.0219 20.0068 8.64659
rtibia 15.3541
rfoot 12.0654 -5.38564
rtoes 35.0643
lfemur 2.76122 -1.76327 -27.1358
ltibia 18.4061
lfoot -18.0588 -3.42198
ltoes -0.6875
4647
root 28.7575 18.1737 7.27392 -174.008 41.1123 179.394
lowerback -7.44144 -1.10259 -2.78467
upperback 2.82556 -1.25462 1.15902
thorax 7.23979 -0.769042 2.61481
lowerneck -17.3056 5.242 3.5594
upperneck 17.0102 7.29689 -4.38698
head 8.44011 3.27745 -1.14122
rclavicle -1.07269e-013 1.47101e-014
rhumerus -37.0383 -14.5714 -72.1957
rradius 34.2041
rwrist 14.3842
rhand -17.367 26.7229
rfingers 7.12502
rthumb 8.88119 -3.07021
lclavicle -1.07269e-013 1.47101e-014
lhumerus -19.4713 -9.34726 89.7093
lradius 29.707
lwrist 9.07831
lhand -12.2229 34.2076
lfingers 7.12502
lthumb 13.8422 63.727
rfemur -31.8812 19.9544 8.94944
rtibia 15.7038
rfoot 12.7535 -6.4468
rtoes 35.4416
lfemur 2.90862 -2.03376 -26.7763
ltibia 18.7305
lfoot -17.8967 -3.55339
ltoes -1.2503
4648
root 28.8447 18.1753 7.20401 -173.704 40.5153 179.71
lowerback -7.49151 -1.08888 -2.47281
upperback 2.74393 -1.27426 1.25541
thorax 7.17692 -0.76491 2.53756
lowerneck -17.4331 5.18785 3.69697
upperneck 17.1167 7.22259 -4.53843
head 8.50704 3.23301 -1.21972
rclavicle 3.01407e-014 -1.78906e-015
rhumerus -37.0803 -14.8429 -71.9827
rradius 33.9017
rwrist 14.5102
rhand -17.1929 26.3518
rfingers 7.12502
rthumb 9.04923 -3.43409
lclavicle 3.01407e-014 -1.78906e-015
lhumerus -19.8705 -8.70033 89.6239
lradius 29.1287
lwrist 8.60606
lhand -12.2817 34.152
lfingers 7.12502
lthumb 13.7855 63.6753
rfemur -31.7935 19.7835 9.35841
rtibia 16.1337
rfoot 13.3026 -7.30782
rtoes 36.4353
lfemur 2.97972 -2.30497 -26.3446
ltibia 19.1043
lfoot -17.7028 -3.67942
ltoes -1.75763
4649
root 28.932 18.1773 7.13099 -173.408 39.9507 180.018
lowerback -7.56009 -1.06673 -2.12515
upperback 2.66602 -1.28453 1.33564
thorax 7.12682 -0.75449 2.42409
lowerneck -17.6702 5.14634 3.90544
upperneck 17.3049 7.16062 -4.74734
head 8.62666 3.19016 -1.32475
rclavicle -3.79679e-014 3.18055e-015
rhumerus -37.124 -15.1436 -71.7695
rradius 33.591
rwrist 14.6596
rhand -16.9484 25.8902
rfingers 7.12502
rthumb 9.28513 -3.88538
lclavicle -3.79679e-014 3.18055e-015
lhumerus -20.2989 -8.1189 89.5111
lradius 28.6033
lwrist 8.23961
lhand -12.3215 34.1247
lfingers 7.12502
lthumb 13.7472 63.6506
rfemur -31.7517 19.5767 9.77333
rtibia 16.7264
rfoot 13.6218 -7.80406
rtoes 37.9435
lfemur 3.07253 -2.56076 -25.9258
ltibia 19.4263
lfoot -17.4412 -3.76518
ltoes -2.28984
4650
root 29.0207 18.1813 7.05344 -173.196 39.4179 180.229
lowerback -7.65288 -1.03703 -1.80856
upperback 2.60071 -1.27877 1.37638
thorax 7.10309 -0.737319 2.28838
lowerneck -18.2426 5.15199 4.45248
upperneck 17.7881 7.1519 -5.28029
head 8.93591 3.15207 -1.57918
rclavicle 6.65929e-015 -4.17448e-015
rhumerus -37.1911 -15.4424 -71.5568
rradius 33.274
rwrist 14.8258
rhand -16.7168 25.5762
rfingers 7.12502
rthumb 9.5086 -4.18929
lclavicle 6.65929e-015 -4.17448e-015
lhumerus -20.7509 -7.60389 89.3687
lradius 28.1156
lwrist 7.96105
lhand -12.3093 34.1219
lfingers 7.12502
lthumb 13.7589 63.647
rfemur -31.7436 19.3894 10.1046
rtibia 17.5164
rfoot 13.6336 -7.85682
rtoes 39.4516
lfemur 3.26296 -2.78006 -25.5949
ltibia 19.6125
lfoot -17.0712 -3.79019
ltoes -2.86888
4651
root 29.1116 18.1875 6.97164 -173.108 38.91 180.312
lowerback -7.75715 -0.999921 -1.56337
upperback 2.55138 -1.25323 1.37034
thorax 7.10281 -0.713191 2.14626
lowerneck -19.3759 5.27464 5.67808
upperneck 18.7759 7.27452 -6.46082
head 9.58704 3.13649 -2.14205
rclavicle -8.77634e-014 5.36719e-015
rhumerus -37.2904 -15.6865 -71.3593
rradius 32.9453
rwrist 14.9675
rhand -16.5804 25.5775
rfingers 7.12502
rthumb 9.64019 -4.18195
lclavicle -8.77634e-014 5.36719e-015
lhumerus -21.2354 -7.16489 89.2005
lradius 27.6627
lwrist 7.75294
lhand -12.2695 34.127
lfingers 7.12502
lthumb 13.7973 63.6495
rfemur -31.7238 19.2145 10.3512
rtibia 18.4692
rfoot 13.381 -7.48603
rtoes 40.4946
lfemur 3.59081 -2.94195 -25.3712
ltibia 19.6394
lfoot -16.573 -3.76362
ltoes -3.39391
4652
root 29.2049 18.1952 6.88697 -173.116 38.4339 180.319
lowerback -7.8544 -0.950063 -1.3723
upperback 2.51706 -1.20356 1.33176
thorax 7.11412 -0.679276 2.00389
lowerneck -19.6924 5.31551 6.12522
upperneck 19.0476 7.29986 -6.85141
head 9.77637 3.12869 -2.3424
rclavicle -9.11428e-014 -2.54444e-014
rhumerus -37.4169 -15.8518 -71.1905
rradius 32.6085
rwrist 15.0565
rhand -16.5621 25.8419
rfingers 7.12502
rthumb 9.65783 -3.91669
lclavicle -9.11428e-014 -2.54444e-014
lhumerus -21.7701 -6.82595 89.0184
lradius 27.2662
lwrist 7.63317
lhand -12.2808 34.1573
lfingers 7.12502
lthumb 13.7864 63.6805
rfemur -31.6483 19.0264 10.5857
rtibia 19.5023
rfoot 13.0115 -6.8202
rtoes 40.8636
lfemur 4.03918 -3.04064 -25.2083
ltibia 19.5564
lfoot -15.9656 -3.71314
ltoes -3.666
4653
root 29.2997 18.2038 6.80147 -173.156 37.9979 180.323
lowerback -7.93591 -0.886014 -1.19619
upperback 2.49019 -1.13327 1.28565
thorax 7.12403 -0.635825 1.86519
lowerneck -19.2909 5.25746 5.85423
upperneck 18.7081 7.21661 -6.53535
head 9.55387 3.11702 -2.20666
rclavicle 4.12478e-015 -1.51076e-014
rhumerus -37.5535 -15.9789 -71.0409
rradius 32.2666
rwrist 15.1311
rhand -16.6148 26.2087
rfingers 7.12502
rthumb 9.60703 -3.55229
lclavicle 4.12478e-015 -1.51076e-014
lhumerus -22.3523 -6.54825 88.8264
lradius 26.9324
lwrist 7.56255
lhand -12.3499 34.2354
lfingers 7.12502
lthumb 13.7198 63.7631
rfemur -31.5163 18.8142 10.8644
rtibia 20.525
rfoot 12.6692 -6.02979
rtoes 40.703
lfemur 4.52858 -3.10607 -25.0472
ltibia 19.4603
lfoot -15.3075 -3.63875
ltoes -3.67361
4654
root 29.3944 18.2128 6.71654 -173.173 37.6017 180.372
lowerback -8.00258 -0.816212 -1.00615
upperback 2.46429 -1.05803 1.25768
thorax 7.12695 -0.589647 1.73871
lowerneck -18.4984 5.16492 5.18761
upperneck 18.0119 7.10079 -5.84073
head 9.10676 3.11322 -1.89037
rclavicle -3.55328e-014 2.38542e-014
rhumerus -37.6807 -16.1193 -70.8853
rradius 31.9305
rwrist 15.2629
rhand -16.6774 26.4759
rfingers 7.12502
rthumb 9.54663 -3.28781
lclavicle -3.55328e-014 2.38542e-014
lhumerus -22.9592 -6.24602 88.6221
lradius 26.6502
lwrist 7.47025
lhand -12.413 34.3657
lfingers 7.12502
lthumb 13.659 63.8975
rfemur -31.3478 18.5798 11.2008
rtibia 21.4687
rfoot 12.4363 -5.22692
rtoes 40.4126
lfemur 4.96831 -3.1897 -24.8562
ltibia 19.4558
lfoot -14.6773 -3.52058
ltoes -3.64025
4655
root 29.4874 18.2224 6.63284 -173.138 37.2441 180.485
lowerback -8.0608 -0.748919 -0.788986
upperback 2.43514 -0.99094 1.26063
thorax 7.1226 -0.5468 1.62853
lowerneck -17.635 5.09273 4.47122
upperneck 17.2209 7.01239 -5.10971
head 8.62038 3.12284 -1.55858
rclavicle 5.81445e-014 -1.09332e-014
rhumerus -37.797 -16.3071 -70.7029
rradius 31.6226
rwrist 15.504
rhand -16.72 26.5353
rfingers 7.12502
rthumb 9.50553 -3.2303
lclavicle 5.81445e-014 -1.09332e-014
lhumerus -23.5749 -5.87548 88.3999
lradius 26.4138
lwrist 7.3328
lhand -12.4426 34.5689
lfingers 7.12502
lthumb 13.6304 64.1026
rfemur -31.1659 18.3373 11.5832
rtibia 22.3011
rfoot 12.3058 -4.45595
rtoes 40.2476
lfemur 5.29524 -3.29813 -24.6205
ltibia 19.6198
lfoot -14.1118 -3.36542
ltoes -3.80439
